<svg xmlns="http://www.w3.org/2000/svg" width="728" height="728" preserveAspectRatio="xMidYMid meet" version="1.0" viewBox="0 0 546 546"><metadata>Created by potrace 1.14, written by Peter Selinger 2001-2017</metadata><g fill="#000" stroke="none"><path d="M2575 5429 c-268 -28 -379 -51 -625 -131 -708 -228 -1281 -720 -1616 -1389 -62 -124 -106 -228 -145 -339 -25 -73 -68 -220 -63 -220 1 0 24 26 50 58 262 322 607 634 903 816 271 167 665 313 1051 391 8 1 35 6 60 10 25 4 54 9 65 11 18 4 42 6 170 19 53 6 288 5 344 0 334 -32 625 -146 866 -340 212 -170 399 -407 521 -660 108 -225 154 -412 160 -645 4 -201 -13 -315 -77 -496 -133 -380 -435 -727 -779 -894 -128 -63 -299 -120 -405 -135 -22 -3 -46 -8 -53 -11 -72 -24 -425 -21 -545 5 -121 27 -126 22 -27 -26 123 -59 293 -117 428 -145 148 -30 385 -31 557 -3 411 69 773 252 1071 541 194 189 327 381 447 644 54 118 125 364 142 495 4 28 11 77 15 110 9 65 6 454 -4 495 -3 14 -11 52 -16 85 -31 185 -74 329 -155 515 -21 47 -41 90 -45 95 -4 6 -22 37 -40 70 -85 157 -289 395 -444 520 -252 203 -561 367 -865 459 -101 31 -304 75 -380 82 -31 3 -63 8 -71 11 -24 9 -418 11 -495 2z" transform="translate(0.000000,546.000000) scale(0.100000,-0.100000)"/><path d="M2297 4165 c-1 -1 -44 -5 -96 -9 -361 -26 -731 -166 -1030 -391 -314 -237 -556 -563 -686 -922 -38 -106 -81 -265 -91 -338 -3 -27 -8 -53 -10 -56 -9 -16 -19 -180 -19 -319 0 -194 10 -301 41 -445 8 -38 17 -80 20 -92 15 -73 93 -285 144 -388 141 -289 333 -514 612 -719 42 -31 80 -56 83 -56 3 0 14 -8 25 -17 10 -10 36 -27 57 -38 21 -10 45 -24 53 -31 56 -44 323 -165 460 -209 47 -15 105 -33 130 -41 55 -18 265 -60 340 -69 30 -3 78 -9 105 -12 103 -13 428 -6 550 11 277 39 560 117 770 211 90 40 276 135 307 156 14 11 29 19 33 19 4 0 61 37 127 82 208 142 424 342 575 530 32 40 60 75 64 78 10 9 126 183 168 253 53 88 142 264 185 369 59 143 139 398 117 372 -4 -5 -27 -34 -51 -64 -149 -187 -402 -439 -597 -596 -219 -177 -421 -299 -650 -392 -295 -121 -568 -196 -883 -243 -94 -14 -382 -19 -475 -9 -234 27 -367 64 -565 157 -388 183 -750 612 -895 1061 -22 68 -61 240 -64 282 -8 113 -8 298 0 344 5 32 11 71 13 85 2 14 13 62 24 106 77 293 295 626 537 820 28 22 52 42 55 45 16 18 167 107 237 141 226 108 439 154 708 153 108 0 251 -11 265 -19 3 -2 30 -6 60 -10 30 -4 58 -9 63 -12 4 -2 7 -2 7 1 0 7 -142 74 -219 103 -90 35 -289 90 -342 96 -24 3 -66 8 -94 11 -54 7 -163 14 -168 11z" transform="translate(0.000000,546.000000) scale(0.100000,-0.100000)"/><path d="M2635 3285 c-220 -46 -399 -215 -452 -429 -49 -194 9 -396 154 -539 212 -209 537 -231 778 -52 395 293 262 902 -223 1016 -68 16 -188 18 -257 4z" transform="translate(0.000000,546.000000) scale(0.100000,-0.100000)"/></g></svg>