<svg xmlns="http://www.w3.org/2000/svg" xmlns:xlink="http://www.w3.org/1999/xlink" id="bluesky" width="100%" height="100%" version="1.1" viewBox="0 0 39 39" xml:space="preserve" style="fill-rule:evenodd;clip-rule:evenodd;stroke-linejoin:round;stroke-miterlimit:2"><path d="M8.389,4.251c4.438,3.332 9.212,10.088 10.965,13.714c1.753,-3.626 6.527,-10.382 10.966,-13.714c3.202,-2.405 8.392,-4.265 8.392,1.655c-0,1.182 -0.678,9.931 -1.076,11.352c-1.382,4.938 -6.417,6.198 -10.897,5.435c7.83,1.333 9.822,5.747 5.52,10.161c-8.169,8.383 -11.742,-2.103 -12.657,-4.79c-0.168,-0.493 -0.247,-0.723 -0.248,-0.527c-0.001,-0.196 -0.08,0.034 -0.247,0.527c-0.916,2.687 -4.488,13.173 -12.658,4.79c-4.302,-4.414 -2.31,-8.828 5.52,-10.161c-4.48,0.763 -9.515,-0.497 -10.897,-5.435c-0.398,-1.421 -1.075,-10.17 -1.075,-11.352c-0,-5.92 5.189,-4.06 8.391,-1.655l0.001,-0Z" style="fill-rule:nonzero"/></svg>