<?xml version="1.0" encoding="UTF-8" standalone="no"?>
<!DOCTYPE svg PUBLIC "-//W3C//DTD SVG 1.1//EN" "http://www.w3.org/Graphics/SVG/1.1/DTD/svg11.dtd">
<svg width="100%" height="100%" viewBox="0 0 24 24" version="1.1" xmlns="http://www.w3.org/2000/svg" xmlns:xlink="http://www.w3.org/1999/xlink" xml:space="preserve" style="fill-rule:evenodd;clip-rule:evenodd;stroke-linejoin:round;stroke-miterlimit:2;" id="steam">
    <g transform="matrix(1,0,0,1,-496,-280)">
        <g id="steam-black">
        </g>
        <g id="steam-black1" transform="matrix(0.786786,0,0,0.786786,495.738,266.176)">
            <path d="M4.932,22.224C7.599,19.763 11.095,18.395 14.724,18.394L14.73,18.416C17.417,18.416 20.051,19.165 22.336,20.579C24.62,21.994 26.465,24.018 27.662,26.424C28.859,28.829 29.361,31.521 29.112,34.197C28.863,36.873 27.872,39.425 26.251,41.569C24.63,43.712 22.443,45.36 19.936,46.328C17.43,47.296 14.703,47.546 12.062,47.049C9.421,46.551 6.972,45.327 4.989,43.514C3.006,41.701 1.568,39.37 0.837,36.784L6.373,39.074C6.575,40.066 7.138,40.948 7.953,41.548C8.768,42.149 9.777,42.426 10.785,42.325C11.792,42.225 12.727,41.754 13.407,41.004C14.087,40.254 14.465,39.279 14.467,38.266L14.467,38.073L19.376,34.57L19.49,34.57C20.567,34.57 21.62,34.251 22.516,33.652C23.412,33.054 24.11,32.203 24.522,31.208C24.934,30.213 25.042,29.117 24.832,28.061C24.622,27.004 24.103,26.034 23.341,25.272C22.58,24.51 21.609,23.991 20.552,23.781C19.496,23.571 18.401,23.679 17.405,24.091C16.41,24.504 15.559,25.202 14.961,26.097C14.362,26.993 14.043,28.046 14.043,29.124L14.043,29.181L10.6,34.168L10.372,34.168C9.552,34.168 8.75,34.416 8.073,34.881L0.334,31.679C0.624,28.062 2.266,24.686 4.932,22.225L4.932,22.224ZM30.221,23.362C30.375,23.133 30.459,22.863 30.46,22.587C30.465,22.402 30.433,22.218 30.365,22.046C30.297,21.874 30.195,21.717 30.065,21.586C29.934,21.455 29.779,21.351 29.607,21.282C29.435,21.213 29.251,21.18 29.066,21.184C28.79,21.184 28.52,21.265 28.29,21.418C28.06,21.57 27.881,21.788 27.774,22.043C27.668,22.297 27.639,22.578 27.693,22.849C27.746,23.12 27.878,23.369 28.072,23.565C28.267,23.761 28.515,23.895 28.786,23.95C29.056,24.004 29.337,23.978 29.592,23.873C29.848,23.769 30.067,23.591 30.221,23.362L30.221,23.362ZM28.089,23.241C27.957,23.048 27.885,22.821 27.882,22.587L27.869,22.587C27.863,22.428 27.89,22.269 27.948,22.121C28.005,21.973 28.093,21.838 28.206,21.726C28.318,21.613 28.453,21.525 28.601,21.466C28.749,21.408 28.907,21.381 29.066,21.387C29.3,21.387 29.528,21.456 29.723,21.585C29.917,21.715 30.069,21.899 30.159,22.114C30.249,22.33 30.273,22.567 30.229,22.796C30.184,23.026 30.073,23.237 29.909,23.403C29.745,23.569 29.536,23.683 29.307,23.731C29.078,23.778 28.84,23.757 28.624,23.67C28.407,23.583 28.221,23.433 28.089,23.241L28.089,23.241ZM29.56,22.261C29.56,22.061 29.453,21.871 29.082,21.871L28.601,21.871L28.601,23.255L28.803,23.255L28.803,22.707L29.101,22.707L29.38,23.255L29.627,23.255L29.31,22.644C29.385,22.611 29.448,22.558 29.492,22.49C29.537,22.422 29.56,22.342 29.56,22.261ZM29.069,22.505L28.813,22.505L28.813,22.046L29.073,22.046C29.272,22.046 29.342,22.134 29.342,22.264C29.341,22.298 29.333,22.332 29.319,22.363C29.305,22.394 29.284,22.422 29.258,22.444C29.233,22.467 29.203,22.484 29.17,22.494C29.138,22.505 29.103,22.508 29.069,22.505ZM9.384,40.309L7.608,39.574C7.865,40.111 8.274,40.562 8.783,40.871C9.293,41.18 9.881,41.334 10.477,41.314C11.073,41.294 11.649,41.101 12.137,40.759C12.625,40.417 13.003,39.94 13.224,39.387C13.445,38.833 13.501,38.228 13.383,37.644C13.266,37.059 12.981,36.522 12.564,36.097C12.146,35.672 11.614,35.377 11.032,35.25C10.45,35.122 9.843,35.167 9.286,35.378L11.12,36.138C11.657,36.378 12.08,36.819 12.297,37.366C12.515,37.914 12.51,38.524 12.283,39.068C12.057,39.611 11.627,40.045 11.086,40.276C10.544,40.508 9.934,40.518 9.384,40.306L9.384,40.309L9.384,40.309ZM22.509,27.106C22.907,27.704 23.12,28.406 23.119,29.123C23.116,30.085 22.733,31.006 22.053,31.686C21.373,32.365 20.451,32.748 19.49,32.749C18.772,32.749 18.07,32.537 17.473,32.138C16.876,31.739 16.411,31.172 16.136,30.508C15.862,29.845 15.79,29.115 15.93,28.411C16.071,27.707 16.417,27.06 16.925,26.553C17.432,26.045 18.079,25.7 18.784,25.56C19.488,25.421 20.218,25.493 20.881,25.768C21.544,26.043 22.11,26.509 22.509,27.106L22.509,27.106ZM17.227,27.608C16.928,28.057 16.769,28.584 16.769,29.123C16.77,29.846 17.058,30.539 17.569,31.049C18.08,31.56 18.773,31.847 19.496,31.847C20.035,31.847 20.563,31.687 21.011,31.387C21.46,31.087 21.809,30.661 22.015,30.163C22.222,29.665 22.276,29.116 22.17,28.587C22.065,28.058 21.805,27.572 21.423,27.191C21.041,26.81 20.555,26.551 20.026,26.446C19.497,26.341 18.949,26.395 18.45,26.602C17.952,26.809 17.527,27.159 17.227,27.608L17.227,27.608Z"/>
        </g>
    </g>
</svg>
